<svg width="1068" height="568" viewBox="0 0 1068 568" class="keymap" xmlns="http://www.w3.org/2000/svg" xmlns:xlink="http://www.w3.org/1999/xlink">
<defs>/* start glyphs */
<svg id="mdi:apple-keyboard-shift">
<svg xmlns="http://www.w3.org/2000/svg" id="mdi-apple-keyboard-shift" viewBox="0 0 24 24"><path d="M15,18V12H17.17L12,6.83L6.83,12H9V18H15M12,4L22,14H17V20H7V14H2L12,4Z" /></svg>
</svg>
<svg id="mdi:arrow-down-bold">
<svg xmlns="http://www.w3.org/2000/svg" id="mdi-arrow-down-bold" viewBox="0 0 24 24"><path d="M9,4H15V12H19.84L12,19.84L4.16,12H9V4Z" /></svg>
</svg>
<svg id="mdi:arrow-left-bold">
<svg xmlns="http://www.w3.org/2000/svg" id="mdi-arrow-left-bold" viewBox="0 0 24 24"><path d="M20,9V15H12V19.84L4.16,12L12,4.16V9H20Z" /></svg>
</svg>
<svg id="mdi:arrow-right-bold">
<svg xmlns="http://www.w3.org/2000/svg" id="mdi-arrow-right-bold" viewBox="0 0 24 24"><path d="M4,15V9H12V4.16L19.84,12L12,19.84V15H4Z" /></svg>
</svg>
<svg id="mdi:arrow-up-bold">
<svg xmlns="http://www.w3.org/2000/svg" id="mdi-arrow-up-bold" viewBox="0 0 24 24"><path d="M15,20H9V12H4.16L12,4.16L19.84,12H15V20Z" /></svg>
</svg>
<svg id="mdi:backspace">
<svg xmlns="http://www.w3.org/2000/svg" id="mdi-backspace" viewBox="0 0 24 24"><path d="M22,3H7C6.31,3 5.77,3.35 5.41,3.88L0,12L5.41,20.11C5.77,20.64 6.31,21 7,21H22A2,2 0 0,0 24,19V5A2,2 0 0,0 22,3M19,15.59L17.59,17L14,13.41L10.41,17L9,15.59L12.59,12L9,8.41L10.41,7L14,10.59L17.59,7L19,8.41L15.41,12" /></svg>
</svg>
<svg id="mdi:bluetooth-connect">
<svg xmlns="http://www.w3.org/2000/svg" id="mdi-bluetooth-connect" viewBox="0 0 24 24"><path d="M19,10L17,12L19,14L21,12M14.88,16.29L13,18.17V14.41M13,5.83L14.88,7.71L13,9.58M17.71,7.71L12,2H11V9.58L6.41,5L5,6.41L10.59,12L5,17.58L6.41,19L11,14.41V22H12L17.71,16.29L13.41,12M7,12L5,10L3,12L5,14L7,12Z" /></svg>
</svg>
<svg id="mdi:bluetooth-off">
<svg xmlns="http://www.w3.org/2000/svg" id="mdi-bluetooth-off" viewBox="0 0 24 24"><path d="M13,5.83L14.88,7.71L13.28,9.31L14.69,10.72L17.71,7.7L12,2H11V7.03L13,9.03M5.41,4L4,5.41L10.59,12L5,17.59L6.41,19L11,14.41V22H12L16.29,17.71L18.59,20L20,18.59M13,18.17V14.41L14.88,16.29" /></svg>
</svg>
<svg id="mdi:chevron-double-left">
<svg xmlns="http://www.w3.org/2000/svg" id="mdi-chevron-double-left" viewBox="0 0 24 24"><path d="M18.41,7.41L17,6L11,12L17,18L18.41,16.59L13.83,12L18.41,7.41M12.41,7.41L11,6L5,12L11,18L12.41,16.59L7.83,12L12.41,7.41Z" /></svg>
</svg>
<svg id="mdi:chevron-double-right">
<svg xmlns="http://www.w3.org/2000/svg" id="mdi-chevron-double-right" viewBox="0 0 24 24"><path d="M5.59,7.41L7,6L13,12L7,18L5.59,16.59L10.17,12L5.59,7.41M11.59,7.41L13,6L19,12L13,18L11.59,16.59L16.17,12L11.59,7.41Z" /></svg>
</svg>
<svg id="mdi:chevron-down">
<svg xmlns="http://www.w3.org/2000/svg" id="mdi-chevron-down" viewBox="0 0 24 24"><path d="M7.41,8.58L12,13.17L16.59,8.58L18,10L12,16L6,10L7.41,8.58Z" /></svg>
</svg>
<svg id="mdi:controller">
<svg xmlns="http://www.w3.org/2000/svg" id="mdi-controller" viewBox="0 0 24 24"><path d="M7.97,16L5,19C4.67,19.3 4.23,19.5 3.75,19.5A1.75,1.75 0 0,1 2,17.75V17.5L3,10.12C3.21,7.81 5.14,6 7.5,6H16.5C18.86,6 20.79,7.81 21,10.12L22,17.5V17.75A1.75,1.75 0 0,1 20.25,19.5C19.77,19.5 19.33,19.3 19,19L16.03,16H7.97M7,8V10H5V11H7V13H8V11H10V10H8V8H7M16.5,8A0.75,0.75 0 0,0 15.75,8.75A0.75,0.75 0 0,0 16.5,9.5A0.75,0.75 0 0,0 17.25,8.75A0.75,0.75 0 0,0 16.5,8M14.75,9.75A0.75,0.75 0 0,0 14,10.5A0.75,0.75 0 0,0 14.75,11.25A0.75,0.75 0 0,0 15.5,10.5A0.75,0.75 0 0,0 14.75,9.75M18.25,9.75A0.75,0.75 0 0,0 17.5,10.5A0.75,0.75 0 0,0 18.25,11.25A0.75,0.75 0 0,0 19,10.5A0.75,0.75 0 0,0 18.25,9.75M16.5,11.5A0.75,0.75 0 0,0 15.75,12.25A0.75,0.75 0 0,0 16.5,13A0.75,0.75 0 0,0 17.25,12.25A0.75,0.75 0 0,0 16.5,11.5Z" /></svg>
</svg>
<svg id="mdi:creation-outline">
<svg xmlns="http://www.w3.org/2000/svg" id="mdi-creation-outline" viewBox="0 0 24 24"><path d="M9 4L11.5 9.5L17 12L11.5 14.5L9 20L6.5 14.5L1 12L6.5 9.5L9 4M9 8.83L8 11L5.83 12L8 13L9 15.17L10 13L12.17 12L10 11L9 8.83M19 9L17.74 6.26L15 5L17.74 3.75L19 1L20.25 3.75L23 5L20.25 6.26L19 9M19 23L17.74 20.26L15 19L17.74 17.75L19 15L20.25 17.75L23 19L20.25 20.26L19 23Z" /></svg>
</svg>
<svg id="mdi:keyboard-esc">
<svg xmlns="http://www.w3.org/2000/svg" id="mdi-keyboard-esc" viewBox="0 0 24 24"><path d="M1 7H7V9H3V11H7V13H3V15H7V17H1V7M11 7H15V9H11V11H13C14.11 11 15 11.9 15 13V15C15 16.11 14.11 17 13 17H9V15H13V13H11C9.9 13 9 12.11 9 11V9C9 7.9 9.9 7 11 7M19 7H21C22.11 7 23 7.9 23 9V10H21V9H19V15H21V14H23V15C23 16.11 22.11 17 21 17H19C17.9 17 17 16.11 17 15V9C17 7.9 17.9 7 19 7Z" /></svg>
</svg>
<svg id="mdi:keyboard-return">
<svg xmlns="http://www.w3.org/2000/svg" id="mdi-keyboard-return" viewBox="0 0 24 24"><path d="M19,7V11H5.83L9.41,7.41L8,6L2,12L8,18L9.41,16.58L5.83,13H21V7H19Z" /></svg>
</svg>
<svg id="mdi:keyboard-space">
<svg xmlns="http://www.w3.org/2000/svg" id="mdi-keyboard-space" viewBox="0 0 24 24"><path d="M3 15H5V19H19V15H21V19C21 20.1 20.1 21 19 21H5C3.9 21 3 20.1 3 19V15Z" /></svg>
</svg>
<svg id="mdi:keyboard-tab">
<svg xmlns="http://www.w3.org/2000/svg" id="mdi-keyboard-tab" viewBox="0 0 24 24"><path d="M20,18H22V6H20M11.59,7.41L15.17,11H1V13H15.17L11.59,16.58L13,18L19,12L13,6L11.59,7.41Z" /></svg>
</svg>
<svg id="mdi:monitor-dashboard">
<svg xmlns="http://www.w3.org/2000/svg" id="mdi-monitor-dashboard" viewBox="0 0 24 24"><path d="M21,16V4H3V16H21M21,2A2,2 0 0,1 23,4V16A2,2 0 0,1 21,18H14V20H16V22H8V20H10V18H3C1.89,18 1,17.1 1,16V4C1,2.89 1.89,2 3,2H21M5,6H14V11H5V6M15,6H19V8H15V6M19,9V14H15V9H19M5,12H9V14H5V12M10,12H14V14H10V12Z" /></svg>
</svg>
<svg id="mdi:play-pause">
<svg xmlns="http://www.w3.org/2000/svg" id="mdi-play-pause" viewBox="0 0 24 24"><path d="M3,5V19L11,12M13,19H16V5H13M18,5V19H21V5" /></svg>
</svg>
<svg id="mdi:ship-wheel">
<svg xmlns="http://www.w3.org/2000/svg" id="mdi-ship-wheel" viewBox="0 0 24 24"><path d="M2,11L4.05,11.1C4.3,8.83 5.5,6.85 7.25,5.56L6.13,3.84C5.86,3.36 6,2.75 6.5,2.47C7,2.2 7.59,2.36 7.87,2.84L8.8,4.66C9.78,4.24 10.86,4 12,4C13.14,4 14.22,4.24 15.2,4.66L16.13,2.84C16.41,2.36 17,2.2 17.5,2.47C18,2.75 18.14,3.36 17.87,3.84L16.75,5.56C18.5,6.85 19.7,8.83 19.95,11.1L22,11A1,1 0 0,1 23,12A1,1 0 0,1 22,13L19.95,12.9C19.7,15.17 18.5,17.15 16.75,18.44L17.87,20.16C18.14,20.64 18,21.25 17.5,21.53C17,21.8 16.41,21.64 16.13,21.16L15.2,19.34C14.22,19.76 13.14,20 12,20C10.86,20 9.78,19.76 8.8,19.34L7.87,21.16C7.59,21.64 7,21.8 6.5,21.53C6,21.25 5.86,20.64 6.13,20.16L7.25,18.44C5.5,17.15 4.3,15.17 4.05,12.9L2,13A1,1 0 0,1 1,12A1,1 0 0,1 2,11M9.07,11.35C9.2,10.74 9.53,10.2 10,9.79L8.34,7.25C7.11,8.19 6.27,9.6 6.05,11.2L9.07,11.35M12,9C12.32,9 12.62,9.05 12.9,9.14L14.28,6.45C13.58,6.16 12.81,6 12,6C11.19,6 10.42,6.16 9.72,6.45L11.1,9.14C11.38,9.05 11.68,9 12,9M14.93,11.35L17.95,11.2C17.73,9.6 16.89,8.19 15.66,7.25L14,9.79C14.47,10.2 14.8,10.74 14.93,11.35M14.93,12.65C14.8,13.26 14.47,13.8 14,14.21L15.66,16.75C16.89,15.81 17.73,14.4 17.95,12.8L14.93,12.65M12,15C11.68,15 11.38,14.95 11.09,14.86L9.72,17.55C10.42,17.84 11.19,18 12,18C12.81,18 13.58,17.84 14.28,17.55L12.91,14.86C12.62,14.95 12.32,15 12,15M9.07,12.65L6.05,12.8C6.27,14.4 7.11,15.81 8.34,16.75L10,14.21C9.53,13.8 9.2,13.26 9.07,12.65Z" /></svg>
</svg>
<svg id="mdi:skip-next">
<svg xmlns="http://www.w3.org/2000/svg" id="mdi-skip-next" viewBox="0 0 24 24"><path d="M16,18H18V6H16M6,18L14.5,12L6,6V18Z" /></svg>
</svg>
<svg id="mdi:skip-previous">
<svg xmlns="http://www.w3.org/2000/svg" id="mdi-skip-previous" viewBox="0 0 24 24"><path d="M6,18V6H8V18H6M9.5,12L18,6V18L9.5,12Z" /></svg>
</svg>
<svg id="mdi:symbol">
<svg xmlns="http://www.w3.org/2000/svg" id="mdi-symbol" viewBox="0 0 24 24"><path d="M2 7V14H4V7H2M6 7V9H10V11H8V14H10V13C11.11 13 12 12.11 12 11V9C12 7.89 11.11 7 10 7H6M15.8 7L15.6 9H14V11H15.4L15.2 13H14V15H15L14.8 17H16.8L17 15H18.4L18.2 17H20.2L20.4 15H22V13H20.6L20.8 11H22V9H21L21.2 7H19.2L19 9H17.6L17.8 7H15.8M17.4 11H18.8L18.6 13H17.2L17.4 11M2 15V17H4V15H2M8 15V17H10V15H8Z" /></svg>
</svg>
<svg id="mdi:usb">
<svg xmlns="http://www.w3.org/2000/svg" id="mdi-usb" viewBox="0 0 24 24"><path d="M15,7V11H16V13H13V5H15L12,1L9,5H11V13H8V10.93C8.7,10.56 9.2,9.85 9.2,9C9.2,7.78 8.21,6.8 7,6.8C5.78,6.8 4.8,7.78 4.8,9C4.8,9.85 5.3,10.56 6,10.93V13A2,2 0 0,0 8,15H11V18.05C10.29,18.41 9.8,19.15 9.8,20A2.2,2.2 0 0,0 12,22.2A2.2,2.2 0 0,0 14.2,20C14.2,19.15 13.71,18.41 13,18.05V15H16A2,2 0 0,0 18,13V11H19V7H15Z" /></svg>
</svg>
<svg id="mdi:volume-high">
<svg xmlns="http://www.w3.org/2000/svg" id="mdi-volume-high" viewBox="0 0 24 24"><path d="M14,3.23V5.29C16.89,6.15 19,8.83 19,12C19,15.17 16.89,17.84 14,18.7V20.77C18,19.86 21,16.28 21,12C21,7.72 18,4.14 14,3.23M16.5,12C16.5,10.23 15.5,8.71 14,7.97V16C15.5,15.29 16.5,13.76 16.5,12M3,9V15H7L12,20V4L7,9H3Z" /></svg>
</svg>
<svg id="mdi:volume-low">
<svg xmlns="http://www.w3.org/2000/svg" id="mdi-volume-low" viewBox="0 0 24 24"><path d="M7,9V15H11L16,20V4L11,9H7Z" /></svg>
</svg>
<svg id="mdi:volume-off">
<svg xmlns="http://www.w3.org/2000/svg" id="mdi-volume-off" viewBox="0 0 24 24"><path d="M12,4L9.91,6.09L12,8.18M4.27,3L3,4.27L7.73,9H3V15H7L12,20V13.27L16.25,17.53C15.58,18.04 14.83,18.46 14,18.7V20.77C15.38,20.45 16.63,19.82 17.68,18.96L19.73,21L21,19.73L12,10.73M19,12C19,12.94 18.8,13.82 18.46,14.64L19.97,16.15C20.62,14.91 21,13.5 21,12C21,7.72 18,4.14 14,3.23V5.29C16.89,6.15 19,8.83 19,12M16.5,12C16.5,10.23 15.5,8.71 14,7.97V10.18L16.45,12.63C16.5,12.43 16.5,12.21 16.5,12Z" /></svg>
</svg>
</defs>/* end glyphs */
<style>/* inherit to force styles through use tags */
svg path {
    fill: inherit;
}

/* font and background color specifications */
svg.keymap {
    font-family: SFMono-Regular,Consolas,Liberation Mono,Menlo,monospace;
    font-size: 14px;
    font-kerning: normal;
    text-rendering: optimizeLegibility;
    fill: #24292e;
}

/* default key styling */
rect.key {
    fill: #f6f8fa;
    stroke: #c9cccf;
    stroke-width: 1;
}

/* default key side styling, only used is draw_key_sides is set */
rect.side {
    filter: brightness(90%);
}

/* color accent for combo boxes */
rect.combo, rect.combo-separate {
    fill: #cdf;
}

/* color accent for held keys */
rect.held, rect.combo.held {
    fill: #fdd;
}

/* color accent for ghost (optional) keys */
rect.ghost, rect.combo.ghost {
    stroke-dasharray: 4, 4;
    stroke-width: 2;
}

text {
    text-anchor: middle;
    dominant-baseline: middle;
}

/* styling for layer labels */
text.label {
    font-weight: bold;
    text-anchor: start;
    stroke: white;
    stroke-width: 2;
    paint-order: stroke;
}

/* styling for combo tap, and key hold/shifted label text */
text.combo, text.hold, text.shifted {
    font-size: 11px;
}

text.hold {
    text-anchor: middle;
    dominant-baseline: auto;
}

text.shifted {
    text-anchor: middle;
    dominant-baseline: hanging;
}

/* styling for hold/shifted label text in combo box */
text.combo.hold, text.combo.shifted {
    font-size: 8px;
}

/* lighter symbol for transparent keys */
text.trans {
    fill: #7b7e81;
}

/* styling for combo dendrons */
path.combo {
    stroke-width: 1;
    stroke: gray;
    fill: none;
}

/* Start Tabler Icons Cleanup */
/* cannot use height/width with glyphs */
.icon-tabler > path {
    fill: inherit;
    stroke: inherit;
    stroke-width: 2;
}
/* hide tabler's default box */
.icon-tabler > path[stroke="none"][fill="none"] {
    visibility: hidden;
}
/* End Tabler Icons Cleanup */

/* Traparent keys */
.trans, .none, .ghost {
  opacity: 0.4;
}

/* Tweak hold/shift styles */
.shifted, .hold {
  font-size: 18px;
  text-anchor: middle;
}
.shifted {
  translate: -25px 2px;
  dominant-baseline: hanging;
  fill: rgb(96, 125, 139);
}
.hold {
  dominant-baseline: ideographic;
  fill: rgb(96, 125, 139);
}
</style>
<g transform="translate(30, 0)" class="layer-Qwerty">
<text x="0" y="28" class="label">Qwerty</text>
<g transform="translate(0, 56)">
<g transform="translate(28, 56)" class="key trans keypos-0">
<rect rx="6" ry="6" x="-26" y="-26" width="52" height="52" class="key trans"/>
<use href="#mdi:chevron-down" xlink:href="#mdi:chevron-down" x="-7" y="-7" height="14" width="14.0" class="key trans tap glyph mdi:chevron-down"/>
</g>
<g transform="translate(84, 56)" class="key trans keypos-1">
<rect rx="6" ry="6" x="-26" y="-26" width="52" height="52" class="key trans"/>
<use href="#mdi:chevron-down" xlink:href="#mdi:chevron-down" x="-7" y="-7" height="14" width="14.0" class="key trans tap glyph mdi:chevron-down"/>
</g>
<g transform="translate(140, 28)" class="key trans keypos-2">
<rect rx="6" ry="6" x="-26" y="-26" width="52" height="52" class="key trans"/>
<use href="#mdi:chevron-down" xlink:href="#mdi:chevron-down" x="-7" y="-7" height="14" width="14.0" class="key trans tap glyph mdi:chevron-down"/>
</g>
<g transform="translate(196, 28)" class="key trans keypos-3">
<rect rx="6" ry="6" x="-26" y="-26" width="52" height="52" class="key trans"/>
<use href="#mdi:chevron-down" xlink:href="#mdi:chevron-down" x="-7" y="-7" height="14" width="14.0" class="key trans tap glyph mdi:chevron-down"/>
</g>
<g transform="translate(252, 28)" class="key trans keypos-4">
<rect rx="6" ry="6" x="-26" y="-26" width="52" height="52" class="key trans"/>
<use href="#mdi:chevron-down" xlink:href="#mdi:chevron-down" x="-7" y="-7" height="14" width="14.0" class="key trans tap glyph mdi:chevron-down"/>
</g>
<g transform="translate(756, 28)" class="key trans keypos-5">
<rect rx="6" ry="6" x="-26" y="-26" width="52" height="52" class="key trans"/>
<use href="#mdi:chevron-down" xlink:href="#mdi:chevron-down" x="-7" y="-7" height="14" width="14.0" class="key trans tap glyph mdi:chevron-down"/>
</g>
<g transform="translate(812, 28)" class="key trans keypos-6">
<rect rx="6" ry="6" x="-26" y="-26" width="52" height="52" class="key trans"/>
<use href="#mdi:chevron-down" xlink:href="#mdi:chevron-down" x="-7" y="-7" height="14" width="14.0" class="key trans tap glyph mdi:chevron-down"/>
</g>
<g transform="translate(868, 28)" class="key trans keypos-7">
<rect rx="6" ry="6" x="-26" y="-26" width="52" height="52" class="key trans"/>
<use href="#mdi:chevron-down" xlink:href="#mdi:chevron-down" x="-7" y="-7" height="14" width="14.0" class="key trans tap glyph mdi:chevron-down"/>
</g>
<g transform="translate(924, 56)" class="key trans keypos-8">
<rect rx="6" ry="6" x="-26" y="-26" width="52" height="52" class="key trans"/>
<use href="#mdi:chevron-down" xlink:href="#mdi:chevron-down" x="-7" y="-7" height="14" width="14.0" class="key trans tap glyph mdi:chevron-down"/>
</g>
<g transform="translate(980, 56)" class="key trans keypos-9">
<rect rx="6" ry="6" x="-26" y="-26" width="52" height="52" class="key trans"/>
<use href="#mdi:chevron-down" xlink:href="#mdi:chevron-down" x="-7" y="-7" height="14" width="14.0" class="key trans tap glyph mdi:chevron-down"/>
</g>
<g transform="translate(28, 112)" class="key trans keypos-10">
<rect rx="6" ry="6" x="-26" y="-26" width="52" height="52" class="key trans"/>
<use href="#mdi:chevron-down" xlink:href="#mdi:chevron-down" x="-7" y="-7" height="14" width="14.0" class="key trans tap glyph mdi:chevron-down"/>
</g>
<g transform="translate(84, 112)" class="key trans keypos-11">
<rect rx="6" ry="6" x="-26" y="-26" width="52" height="52" class="key trans"/>
<use href="#mdi:chevron-down" xlink:href="#mdi:chevron-down" x="-7" y="-7" height="14" width="14.0" class="key trans tap glyph mdi:chevron-down"/>
</g>
<g transform="translate(140, 84)" class="key trans keypos-12">
<rect rx="6" ry="6" x="-26" y="-26" width="52" height="52" class="key trans"/>
<use href="#mdi:chevron-down" xlink:href="#mdi:chevron-down" x="-7" y="-7" height="14" width="14.0" class="key trans tap glyph mdi:chevron-down"/>
</g>
<g transform="translate(196, 84)" class="key trans keypos-13">
<rect rx="6" ry="6" x="-26" y="-26" width="52" height="52" class="key trans"/>
<use href="#mdi:chevron-down" xlink:href="#mdi:chevron-down" x="-7" y="-7" height="14" width="14.0" class="key trans tap glyph mdi:chevron-down"/>
</g>
<g transform="translate(252, 84)" class="key trans keypos-14">
<rect rx="6" ry="6" x="-26" y="-26" width="52" height="52" class="key trans"/>
<use href="#mdi:chevron-down" xlink:href="#mdi:chevron-down" x="-7" y="-7" height="14" width="14.0" class="key trans tap glyph mdi:chevron-down"/>
</g>
<g transform="translate(308, 84)" class="key trans keypos-15">
<rect rx="6" ry="6" x="-26" y="-26" width="52" height="52" class="key trans"/>
<use href="#mdi:chevron-down" xlink:href="#mdi:chevron-down" x="-7" y="-7" height="14" width="14.0" class="key trans tap glyph mdi:chevron-down"/>
</g>
<g transform="translate(700, 84)" class="key trans keypos-16">
<rect rx="6" ry="6" x="-26" y="-26" width="52" height="52" class="key trans"/>
<use href="#mdi:chevron-down" xlink:href="#mdi:chevron-down" x="-7" y="-7" height="14" width="14.0" class="key trans tap glyph mdi:chevron-down"/>
</g>
<g transform="translate(756, 84)" class="key trans keypos-17">
<rect rx="6" ry="6" x="-26" y="-26" width="52" height="52" class="key trans"/>
<use href="#mdi:chevron-down" xlink:href="#mdi:chevron-down" x="-7" y="-7" height="14" width="14.0" class="key trans tap glyph mdi:chevron-down"/>
</g>
<g transform="translate(812, 84)" class="key trans keypos-18">
<rect rx="6" ry="6" x="-26" y="-26" width="52" height="52" class="key trans"/>
<use href="#mdi:chevron-down" xlink:href="#mdi:chevron-down" x="-7" y="-7" height="14" width="14.0" class="key trans tap glyph mdi:chevron-down"/>
</g>
<g transform="translate(868, 84)" class="key trans keypos-19">
<rect rx="6" ry="6" x="-26" y="-26" width="52" height="52" class="key trans"/>
<use href="#mdi:chevron-down" xlink:href="#mdi:chevron-down" x="-7" y="-7" height="14" width="14.0" class="key trans tap glyph mdi:chevron-down"/>
</g>
<g transform="translate(924, 112)" class="key trans keypos-20">
<rect rx="6" ry="6" x="-26" y="-26" width="52" height="52" class="key trans"/>
<use href="#mdi:chevron-down" xlink:href="#mdi:chevron-down" x="-7" y="-7" height="14" width="14.0" class="key trans tap glyph mdi:chevron-down"/>
</g>
<g transform="translate(980, 112)" class="key trans keypos-21">
<rect rx="6" ry="6" x="-26" y="-26" width="52" height="52" class="key trans"/>
<use href="#mdi:chevron-down" xlink:href="#mdi:chevron-down" x="-7" y="-7" height="14" width="14.0" class="key trans tap glyph mdi:chevron-down"/>
</g>
<g transform="translate(28, 168)" class="key trans keypos-22">
<rect rx="6" ry="6" x="-26" y="-26" width="52" height="52" class="key trans"/>
<use href="#mdi:chevron-down" xlink:href="#mdi:chevron-down" x="-7" y="-7" height="14" width="14.0" class="key trans tap glyph mdi:chevron-down"/>
</g>
<g transform="translate(84, 168)" class="key keypos-23">
<rect rx="6" ry="6" x="-26" y="-26" width="52" height="52" class="key"/>
<text x="0" y="0" class="key tap">Q</text>
</g>
<g transform="translate(140, 140)" class="key keypos-24">
<rect rx="6" ry="6" x="-26" y="-26" width="52" height="52" class="key"/>
<text x="0" y="0" class="key tap">W</text>
</g>
<g transform="translate(196, 140)" class="key keypos-25">
<rect rx="6" ry="6" x="-26" y="-26" width="52" height="52" class="key"/>
<text x="0" y="0" class="key tap">E</text>
</g>
<g transform="translate(252, 140)" class="key keypos-26">
<rect rx="6" ry="6" x="-26" y="-26" width="52" height="52" class="key"/>
<text x="0" y="0" class="key tap">R</text>
</g>
<g transform="translate(308, 140)" class="key keypos-27">
<rect rx="6" ry="6" x="-26" y="-26" width="52" height="52" class="key"/>
<text x="0" y="0" class="key tap">T</text>
</g>
<g transform="translate(700, 140)" class="key keypos-28">
<rect rx="6" ry="6" x="-26" y="-26" width="52" height="52" class="key"/>
<text x="0" y="0" class="key tap">Y</text>
</g>
<g transform="translate(756, 140)" class="key keypos-29">
<rect rx="6" ry="6" x="-26" y="-26" width="52" height="52" class="key"/>
<text x="0" y="0" class="key tap">U</text>
</g>
<g transform="translate(812, 140)" class="key keypos-30">
<rect rx="6" ry="6" x="-26" y="-26" width="52" height="52" class="key"/>
<text x="0" y="0" class="key tap">I</text>
</g>
<g transform="translate(868, 140)" class="key keypos-31">
<rect rx="6" ry="6" x="-26" y="-26" width="52" height="52" class="key"/>
<text x="0" y="0" class="key tap">O</text>
</g>
<g transform="translate(924, 168)" class="key keypos-32">
<rect rx="6" ry="6" x="-26" y="-26" width="52" height="52" class="key"/>
<text x="0" y="0" class="key tap">P</text>
</g>
<g transform="translate(980, 168)" class="key trans keypos-33">
<rect rx="6" ry="6" x="-26" y="-26" width="52" height="52" class="key trans"/>
<use href="#mdi:chevron-down" xlink:href="#mdi:chevron-down" x="-7" y="-7" height="14" width="14.0" class="key trans tap glyph mdi:chevron-down"/>
</g>
<g transform="translate(28, 224)" class="key trans keypos-34">
<rect rx="6" ry="6" x="-26" y="-26" width="52" height="52" class="key trans"/>
<use href="#mdi:chevron-down" xlink:href="#mdi:chevron-down" x="-7" y="-7" height="14" width="14.0" class="key trans tap glyph mdi:chevron-down"/>
</g>
<g transform="translate(84, 224)" class="key keypos-35">
<rect rx="6" ry="6" x="-26" y="-26" width="52" height="52" class="key"/>
<text x="0" y="0" class="key tap">A</text>
</g>
<g transform="translate(140, 196)" class="key keypos-36">
<rect rx="6" ry="6" x="-26" y="-26" width="52" height="52" class="key"/>
<text x="0" y="0" class="key tap">S</text>
</g>
<g transform="translate(196, 196)" class="key keypos-37">
<rect rx="6" ry="6" x="-26" y="-26" width="52" height="52" class="key"/>
<text x="0" y="0" class="key tap">D</text>
</g>
<g transform="translate(252, 196)" class="key keypos-38">
<rect rx="6" ry="6" x="-26" y="-26" width="52" height="52" class="key"/>
<text x="0" y="0" class="key tap">F</text>
</g>
<g transform="translate(308, 196)" class="key keypos-39">
<rect rx="6" ry="6" x="-26" y="-26" width="52" height="52" class="key"/>
<text x="0" y="0" class="key tap">G</text>
</g>
<g transform="translate(700, 196)" class="key keypos-40">
<rect rx="6" ry="6" x="-26" y="-26" width="52" height="52" class="key"/>
<text x="0" y="0" class="key tap">H</text>
</g>
<g transform="translate(756, 196)" class="key keypos-41">
<rect rx="6" ry="6" x="-26" y="-26" width="52" height="52" class="key"/>
<text x="0" y="0" class="key tap">J</text>
</g>
<g transform="translate(812, 196)" class="key keypos-42">
<rect rx="6" ry="6" x="-26" y="-26" width="52" height="52" class="key"/>
<text x="0" y="0" class="key tap">K</text>
</g>
<g transform="translate(868, 196)" class="key keypos-43">
<rect rx="6" ry="6" x="-26" y="-26" width="52" height="52" class="key"/>
<text x="0" y="0" class="key tap">L</text>
</g>
<g transform="translate(924, 224)" class="key keypos-44">
<rect rx="6" ry="6" x="-26" y="-26" width="52" height="52" class="key"/>
<text x="0" y="0" class="key tap">;</text>
</g>
<g transform="translate(980, 224)" class="key trans keypos-45">
<rect rx="6" ry="6" x="-26" y="-26" width="52" height="52" class="key trans"/>
<use href="#mdi:chevron-down" xlink:href="#mdi:chevron-down" x="-7" y="-7" height="14" width="14.0" class="key trans tap glyph mdi:chevron-down"/>
</g>
<g transform="translate(28, 280)" class="key trans keypos-46">
<rect rx="6" ry="6" x="-26" y="-26" width="52" height="52" class="key trans"/>
<use href="#mdi:chevron-down" xlink:href="#mdi:chevron-down" x="-7" y="-7" height="14" width="14.0" class="key trans tap glyph mdi:chevron-down"/>
</g>
<g transform="translate(84, 280)" class="key keypos-47">
<rect rx="6" ry="6" x="-26" y="-26" width="52" height="52" class="key"/>
<text x="0" y="0" class="key tap">Z</text>
</g>
<g transform="translate(140, 252)" class="key keypos-48">
<rect rx="6" ry="6" x="-26" y="-26" width="52" height="52" class="key"/>
<text x="0" y="0" class="key tap">X</text>
</g>
<g transform="translate(196, 252)" class="key keypos-49">
<rect rx="6" ry="6" x="-26" y="-26" width="52" height="52" class="key"/>
<text x="0" y="0" class="key tap">C</text>
</g>
<g transform="translate(252, 252)" class="key keypos-50">
<rect rx="6" ry="6" x="-26" y="-26" width="52" height="52" class="key"/>
<text x="0" y="0" class="key tap">V</text>
</g>
<g transform="translate(308, 252)" class="key keypos-51">
<rect rx="6" ry="6" x="-26" y="-26" width="52" height="52" class="key"/>
<text x="0" y="0" class="key tap">B</text>
</g>
<g transform="translate(367, 306) rotate(20.0)" class="key trans keypos-52">
<rect rx="6" ry="6" x="-26" y="-26" width="52" height="52" class="key trans"/>
<use href="#mdi:chevron-down" xlink:href="#mdi:chevron-down" x="-7" y="-7" height="14" width="14.0" class="key trans tap glyph mdi:chevron-down"/>
</g>
<g transform="translate(419, 329) rotate(30.0)" class="key trans keypos-53">
<rect rx="6" ry="6" x="-26" y="-26" width="52" height="52" class="key trans"/>
<use href="#mdi:chevron-down" xlink:href="#mdi:chevron-down" x="-7" y="-7" height="14" width="14.0" class="key trans tap glyph mdi:chevron-down"/>
</g>
<g transform="translate(466, 365) rotate(45.0)" class="key trans keypos-54">
<rect rx="6" ry="6" x="-26" y="-26" width="52" height="52" class="key trans"/>
<use href="#mdi:chevron-down" xlink:href="#mdi:chevron-down" x="-7" y="-7" height="14" width="14.0" class="key trans tap glyph mdi:chevron-down"/>
</g>
<g transform="translate(546, 361) rotate(-45.0)" class="key trans keypos-55">
<rect rx="6" ry="6" x="-26" y="-26" width="52" height="52" class="key trans"/>
<use href="#mdi:chevron-down" xlink:href="#mdi:chevron-down" x="-7" y="-7" height="14" width="14.0" class="key trans tap glyph mdi:chevron-down"/>
</g>
<g transform="translate(594, 327) rotate(-30.0)" class="key trans keypos-56">
<rect rx="6" ry="6" x="-26" y="-26" width="52" height="52" class="key trans"/>
<use href="#mdi:chevron-down" xlink:href="#mdi:chevron-down" x="-7" y="-7" height="14" width="14.0" class="key trans tap glyph mdi:chevron-down"/>
</g>
<g transform="translate(646, 304) rotate(-20.0)" class="key trans keypos-57">
<rect rx="6" ry="6" x="-26" y="-26" width="52" height="52" class="key trans"/>
<use href="#mdi:chevron-down" xlink:href="#mdi:chevron-down" x="-7" y="-7" height="14" width="14.0" class="key trans tap glyph mdi:chevron-down"/>
</g>
<g transform="translate(700, 252)" class="key keypos-58">
<rect rx="6" ry="6" x="-26" y="-26" width="52" height="52" class="key"/>
<text x="0" y="0" class="key tap">N</text>
</g>
<g transform="translate(756, 252)" class="key keypos-59">
<rect rx="6" ry="6" x="-26" y="-26" width="52" height="52" class="key"/>
<text x="0" y="0" class="key tap">M</text>
</g>
<g transform="translate(812, 252)" class="key keypos-60">
<rect rx="6" ry="6" x="-26" y="-26" width="52" height="52" class="key"/>
<text x="0" y="0" class="key tap">,</text>
</g>
<g transform="translate(868, 252)" class="key keypos-61">
<rect rx="6" ry="6" x="-26" y="-26" width="52" height="52" class="key"/>
<text x="0" y="0" class="key tap">.</text>
</g>
<g transform="translate(924, 280)" class="key keypos-62">
<rect rx="6" ry="6" x="-26" y="-26" width="52" height="52" class="key"/>
<text x="0" y="0" class="key tap">/</text>
</g>
<g transform="translate(980, 280)" class="key trans keypos-63">
<rect rx="6" ry="6" x="-26" y="-26" width="52" height="52" class="key trans"/>
<use href="#mdi:chevron-down" xlink:href="#mdi:chevron-down" x="-7" y="-7" height="14" width="14.0" class="key trans tap glyph mdi:chevron-down"/>
</g>
<g transform="translate(28, 336)" class="key trans keypos-64">
<rect rx="6" ry="6" x="-26" y="-26" width="52" height="52" class="key trans"/>
<use href="#mdi:chevron-down" xlink:href="#mdi:chevron-down" x="-7" y="-7" height="14" width="14.0" class="key trans tap glyph mdi:chevron-down"/>
</g>
<g transform="translate(84, 336)" class="key trans keypos-65">
<rect rx="6" ry="6" x="-26" y="-26" width="52" height="52" class="key trans"/>
<use href="#mdi:chevron-down" xlink:href="#mdi:chevron-down" x="-7" y="-7" height="14" width="14.0" class="key trans tap glyph mdi:chevron-down"/>
</g>
<g transform="translate(140, 308)" class="key trans keypos-66">
<rect rx="6" ry="6" x="-26" y="-26" width="52" height="52" class="key trans"/>
<use href="#mdi:chevron-down" xlink:href="#mdi:chevron-down" x="-7" y="-7" height="14" width="14.0" class="key trans tap glyph mdi:chevron-down"/>
</g>
<g transform="translate(196, 308)" class="key trans keypos-67">
<rect rx="6" ry="6" x="-26" y="-26" width="52" height="52" class="key trans"/>
<use href="#mdi:chevron-down" xlink:href="#mdi:chevron-down" x="-7" y="-7" height="14" width="14.0" class="key trans tap glyph mdi:chevron-down"/>
</g>
<g transform="translate(252, 308)" class="key trans keypos-68">
<rect rx="6" ry="6" x="-26" y="-26" width="52" height="52" class="key trans"/>
<use href="#mdi:chevron-down" xlink:href="#mdi:chevron-down" x="-7" y="-7" height="14" width="14.0" class="key trans tap glyph mdi:chevron-down"/>
</g>
<g transform="translate(314, 356) rotate(15.0)" class="key trans keypos-69">
<rect rx="6" ry="6" x="-26" y="-26" width="52" height="52" class="key trans"/>
<use href="#mdi:chevron-down" xlink:href="#mdi:chevron-down" x="-7" y="-7" height="14" width="14.0" class="key trans tap glyph mdi:chevron-down"/>
</g>
<g transform="translate(370, 379) rotate(25.0)" class="key trans keypos-70">
<rect rx="6" ry="6" x="-26" y="-26" width="52" height="52" class="key trans"/>
<use href="#mdi:chevron-down" xlink:href="#mdi:chevron-down" x="-7" y="-7" height="14" width="14.0" class="key trans tap glyph mdi:chevron-down"/>
</g>
<g transform="translate(422, 417) rotate(45.0)" class="key trans keypos-71">
<rect rx="6" ry="6" x="-26" y="-26" width="52" height="52" class="key trans"/>
<use href="#mdi:chevron-down" xlink:href="#mdi:chevron-down" x="-7" y="-7" height="14" width="14.0" class="key trans tap glyph mdi:chevron-down"/>
</g>
<g transform="translate(586, 417) rotate(-45.0)" class="key trans keypos-72">
<rect rx="6" ry="6" x="-26" y="-26" width="52" height="52" class="key trans"/>
<use href="#mdi:chevron-down" xlink:href="#mdi:chevron-down" x="-7" y="-7" height="14" width="14.0" class="key trans tap glyph mdi:chevron-down"/>
</g>
<g transform="translate(638, 379) rotate(-25.0)" class="key trans keypos-73">
<rect rx="6" ry="6" x="-26" y="-26" width="52" height="52" class="key trans"/>
<use href="#mdi:chevron-down" xlink:href="#mdi:chevron-down" x="-7" y="-7" height="14" width="14.0" class="key trans tap glyph mdi:chevron-down"/>
</g>
<g transform="translate(694, 356) rotate(-15.0)" class="key trans keypos-74">
<rect rx="6" ry="6" x="-26" y="-26" width="52" height="52" class="key trans"/>
<use href="#mdi:chevron-down" xlink:href="#mdi:chevron-down" x="-7" y="-7" height="14" width="14.0" class="key trans tap glyph mdi:chevron-down"/>
</g>
<g transform="translate(756, 308)" class="key trans keypos-75">
<rect rx="6" ry="6" x="-26" y="-26" width="52" height="52" class="key trans"/>
<use href="#mdi:chevron-down" xlink:href="#mdi:chevron-down" x="-7" y="-7" height="14" width="14.0" class="key trans tap glyph mdi:chevron-down"/>
</g>
<g transform="translate(812, 308)" class="key trans keypos-76">
<rect rx="6" ry="6" x="-26" y="-26" width="52" height="52" class="key trans"/>
<use href="#mdi:chevron-down" xlink:href="#mdi:chevron-down" x="-7" y="-7" height="14" width="14.0" class="key trans tap glyph mdi:chevron-down"/>
</g>
<g transform="translate(868, 308)" class="key trans keypos-77">
<rect rx="6" ry="6" x="-26" y="-26" width="52" height="52" class="key trans"/>
<use href="#mdi:chevron-down" xlink:href="#mdi:chevron-down" x="-7" y="-7" height="14" width="14.0" class="key trans tap glyph mdi:chevron-down"/>
</g>
<g transform="translate(924, 336)" class="key trans keypos-78">
<rect rx="6" ry="6" x="-26" y="-26" width="52" height="52" class="key trans"/>
<use href="#mdi:chevron-down" xlink:href="#mdi:chevron-down" x="-7" y="-7" height="14" width="14.0" class="key trans tap glyph mdi:chevron-down"/>
</g>
<g transform="translate(980, 336)" class="key trans keypos-79">
<rect rx="6" ry="6" x="-26" y="-26" width="52" height="52" class="key trans"/>
<use href="#mdi:chevron-down" xlink:href="#mdi:chevron-down" x="-7" y="-7" height="14" width="14.0" class="key trans tap glyph mdi:chevron-down"/>
</g>
</g>
</g>
</svg>
